<svg width="219" height="135" viewBox="0 0 219 135" fill="none" xmlns="http://www.w3.org/2000/svg">
<path fill-rule="evenodd" clip-rule="evenodd" d="M140.5 0.808195C138.3 1.3802 136.387 1.9392 136.25 2.0492C135.716 2.4782 140.326 15.2942 142.728 20.0612C150.227 34.9422 162.459 49.2692 174.413 57.1732L180.327 61.0832L90.163 61.3382L0 61.5942V67.5832V73.5722L89.677 73.8282L179.354 74.0832L174.927 77.0042C158.777 87.6582 145.446 105.014 138.854 123.969L136.032 132.083L139.766 133.256C146.201 135.278 146.684 135.046 148.993 128.833C152.204 120.191 158.5 108.995 164.119 101.933C175.454 87.6882 197.545 75.1762 214.5 73.3982C217.39 73.0952 217.511 72.8822 217.793 67.5802L218.085 62.0762L208.793 59.8672C191.227 55.6892 175.017 45.7452 164.291 32.5672C158.737 25.7432 150.461 10.8492 148.463 4.0832C147.153 -0.353805 146.307 -0.701805 140.5 0.808195Z" fill="black"/>
</svg>
