<?xml version="1.0" encoding="UTF-8"?>
<svg width="1288px" height="506px" viewBox="0 0 1288 506" version="1.1" xmlns="http://www.w3.org/2000/svg" xmlns:xlink="http://www.w3.org/1999/xlink">
    <!-- Generator: Sketch 64 (93537) - https://sketch.com -->
    <title>bagggy</title>
    <desc>Created with Sketch.</desc>
    <g id="Page-1" stroke="none" stroke-width="1" fill="none" fill-rule="evenodd">
        <g id="bagggy" fill="#010101" fill-rule="nonzero">
            <path d="M5.57755776,5.57755776 L36.1254125,5.57755776 L36.1254125,197.531353 L36.8976898,197.531353 C51.3993399,174.792079 73.9669967,161.148515 98.379538,161.148515 C151.838284,161.148515 184.70297,213.448845 184.70297,273.943894 C184.70297,333.537954 151.452145,386.739274 98.7656766,386.739274 C73.9240924,386.739274 51.3993399,374.468647 36.8976898,351.257426 L36.1254125,351.257426 L36.1254125,380.818482 L5.57755776,380.818482 L5.57755776,5.57755776 Z M34.6237624,271.669967 C34.6237624,313.50165 55.2607261,353.10231 93.4455446,353.10231 C132.788779,353.10231 153.425743,315.346535 153.425743,272.141914 C153.425743,229.409241 130.90099,194.828308 93.0594059,194.828308 C57.5346535,194.785479 34.6237624,231.640264 34.6237624,271.669967 Z" id="Shape"></path>
            <path d="M98.8085809,392.316832 C76.7557756,392.316832 56.6336634,383.178218 41.7458746,366.831683 L41.7458746,380.818482 C41.7458746,383.907591 39.2574257,386.39604 36.1683168,386.39604 L5.57755776,386.39604 C2.48844884,386.39604 0,383.907591 0,380.818482 L0,5.57755776 C0,2.48844884 2.48844884,0 5.57755776,0 L36.1254125,0 C39.2145215,0 41.7029703,2.48844884 41.7029703,5.57755776 L41.7029703,181.957096 C56.9339934,165.009901 76.9273927,155.570957 98.379538,155.570957 C151.623762,155.570957 190.280528,205.339934 190.280528,273.943894 C190.280528,305.049505 181.656766,334.138614 166.039604,355.933993 C149.221122,379.40264 125.323432,392.316832 98.8085809,392.316832 Z M36.1254125,345.679868 L36.8976898,345.679868 C38.8283828,345.679868 40.5874587,346.666667 41.6171617,348.29703 C54.8745875,369.491749 75.1683168,381.161716 98.7656766,381.161716 C150.980198,381.161716 179.125413,325.90099 179.125413,273.943894 C179.125413,220.656766 151.409241,166.726073 98.379538,166.726073 C75.9834983,166.726073 55.3036304,179.039604 41.5742574,200.534653 C40.5445545,202.122112 38.7854785,203.108911 36.8547855,203.108911 L36.1254125,203.108911 C33.0363036,203.108911 30.5478548,200.620462 30.5478548,197.531353 L30.5478548,11.1551155 L11.1551155,11.1551155 L11.1551155,375.19802 L30.5478548,375.19802 L30.5478548,351.214521 C30.5478548,348.168317 33.0363036,345.679868 36.1254125,345.679868 Z M93.4455446,358.636964 C51.1419142,358.636964 29.0462046,314.874587 29.0462046,271.627063 C29.0462046,250.346535 35.0528053,230.224422 45.9933993,214.950495 C57.8778878,198.346535 74.6105611,189.207921 93.0594059,189.207921 C131.887789,189.207921 159.0033,223.316832 159.0033,272.09901 C159.0033,295.310231 153.254125,316.547855 142.785479,331.907591 C130.943894,349.412541 113.867987,358.636964 93.4455446,358.636964 Z M93.0594059,200.363036 C59.980198,200.363036 40.2013201,236.617162 40.2013201,271.627063 C40.2013201,309.29703 58.4785479,347.438944 93.4455446,347.438944 C131.029703,347.438944 147.848185,309.59736 147.848185,272.056106 C147.848185,251.891089 142.570957,233.656766 132.960396,220.69967 C123.049505,207.39934 109.277228,200.363036 93.0594059,200.363036 Z" id="Shape"></path>
            <path d="M384.122112,380.818482 L353.574257,380.818482 L353.574257,351.257426 L352.80198,351.257426 C337.141914,374.89769 316.118812,386.739274 290.933993,386.739274 C238.20462,386.739274 204.9967,333.537954 204.9967,274.415842 C204.9967,213.448845 237.475248,161.148515 291.320132,161.148515 C315.775578,161.148515 337.914191,174.792079 352.80198,197.531353 L353.574257,197.531353 L353.574257,167.069307 L384.122112,167.069307 L384.122112,380.818482 Z M236.316832,271.669967 C236.316832,313.50165 256.953795,353.10231 295.138614,353.10231 C334.481848,353.10231 355.118812,315.346535 355.118812,272.141914 C355.118812,229.409241 332.594059,194.828308 294.752475,194.828308 C259.227723,194.785479 236.316832,231.640264 236.316832,271.669967 Z" id="Shape"></path>
            <path d="M290.933993,392.316832 C238.762376,392.316832 199.419142,341.60396 199.419142,274.415842 C199.419142,242.623762 207.957096,213.277228 223.445545,191.69637 C240.392739,168.09901 263.861386,155.613861 291.363036,155.613861 C312.557756,155.613861 332.594059,165.138614 348.039604,182.214521 L348.039604,167.112211 C348.039604,164.023102 350.528053,161.534653 353.617162,161.534653 L384.165017,161.534653 C387.254125,161.534653 389.742574,164.023102 389.742574,167.112211 L389.742574,380.861386 C389.742574,383.950495 387.254125,386.438944 384.165017,386.438944 L353.617162,386.438944 C350.528053,386.438944 348.039604,383.950495 348.039604,380.861386 L348.039604,366.660066 C332.636964,383.693069 313.50165,392.316832 290.933993,392.316832 Z M291.320132,166.726073 C267.594059,166.726073 247.257426,177.580858 232.49835,198.174917 C218.382838,217.867987 210.574257,244.940594 210.574257,274.415842 C210.574257,326.158416 238.762376,381.161716 290.933993,381.161716 C314.40264,381.161716 333.666667,370.049505 348.168317,348.168317 C349.19802,346.623762 350.957096,345.679868 352.80198,345.679868 L353.574257,345.679868 C356.663366,345.679868 359.151815,348.168317 359.151815,351.257426 L359.151815,375.240924 L378.544554,375.240924 L378.544554,172.60396 L359.151815,172.60396 L359.151815,197.488449 C359.151815,200.577558 356.663366,203.066007 353.574257,203.066007 L352.80198,203.066007 C350.914191,203.066007 349.155116,202.122112 348.125413,200.534653 C334.052805,179.039604 313.330033,166.726073 291.320132,166.726073 Z M295.138614,358.636964 C252.834983,358.636964 230.739274,314.874587 230.739274,271.627063 C230.739274,250.346535 236.745875,230.224422 247.686469,214.950495 C259.570957,198.346535 276.30363,189.207921 294.752475,189.207921 C333.580858,189.207921 360.69637,223.316832 360.69637,272.09901 C360.69637,295.310231 354.947195,316.547855 344.521452,331.907591 C332.636964,349.412541 315.561056,358.636964 295.138614,358.636964 Z M294.752475,200.363036 C261.673267,200.363036 241.894389,236.617162 241.894389,271.627063 C241.894389,309.29703 260.171617,347.438944 295.138614,347.438944 C332.722772,347.438944 349.541254,309.59736 349.541254,272.056106 C349.541254,251.891089 344.264026,233.656766 334.653465,220.69967 C324.742574,207.39934 310.970297,200.363036 294.752475,200.363036 Z" id="Shape"></path>
            <path d="M595.382838,370.349835 C595.382838,404.458746 595.382838,434.019802 577.062706,462.207921 C560.244224,487.693069 534.287129,499.963696 507.557756,499.963696 C457.531353,499.963696 420.462046,462.207921 419.30363,401.712871 L449.851485,401.712871 C450.237624,441.270627 474.306931,466.283828 507.171617,466.283828 C554.537954,466.283828 564.834983,424.881188 564.834983,376.69967 L564.834983,351.214521 L564.062706,351.214521 C549.561056,373.481848 525.877888,386.69637 501.808581,386.69637 C449.465347,386.69637 416.257426,334.39604 416.257426,274.80198 C416.257426,214.778878 449.894389,161.105611 502.966997,161.105611 C527.808581,161.105611 549.561056,174.277228 564.105611,197.488449 L564.877888,197.488449 L564.877888,167.026403 L595.425743,167.026403 L595.425743,370.349835 L595.382838,370.349835 Z M447.534653,271.669967 C447.534653,313.50165 468.171617,353.10231 506.356436,353.10231 C545.69967,353.10231 566.336634,315.346535 566.336634,272.141914 C566.336634,229.409241 543.811881,194.828308 505.970297,194.828308 C470.445545,194.785479 447.534653,231.640264 447.534653,271.669967 Z" id="Shape"></path>
            <path d="M507.514851,505.541254 C452.554455,505.541254 414.884488,463.881188 413.683168,401.841584 C413.640264,400.339934 414.240924,398.881188 415.270627,397.808581 C416.30033,396.735974 417.759076,396.135314 419.260726,396.135314 L449.808581,396.135314 C452.854785,396.135314 455.343234,398.580858 455.386139,401.669967 C455.729373,436.980198 476.49505,460.706271 507.085809,460.706271 C543.125413,460.706271 559.171617,434.792079 559.171617,376.69967 L559.171617,366.445545 C543.89769,382.834983 523.260726,392.316832 501.722772,392.316832 C475.336634,392.316832 451.567657,379.574257 434.792079,356.405941 C419.174917,334.825083 410.594059,305.864686 410.594059,274.844884 C410.594059,206.841584 450.280528,155.570957 502.881188,155.570957 C524.633663,155.570957 544.155116,164.752475 559.171617,181.742574 L559.171617,167.069307 C559.171617,163.980198 561.660066,161.491749 564.749175,161.491749 L595.29703,161.491749 C598.386139,161.491749 600.874587,163.980198 600.874587,167.069307 L600.874587,370.392739 C600.874587,405.445545 600.874587,435.735974 581.653465,465.29703 C564.792079,490.867987 537.762376,505.541254 507.514851,505.541254 Z M425.09571,407.290429 C428.227723,459.633663 460.792079,494.386139 507.514851,494.386139 C533.943894,494.386139 557.584158,481.557756 572.386139,459.161716 C589.805281,432.389439 589.805281,403.643564 589.805281,370.349835 L589.805281,172.60396 L570.412541,172.60396 L570.412541,197.488449 C570.412541,200.577558 567.924092,203.066007 564.834983,203.066007 L564.062706,203.066007 C562.132013,203.066007 560.372937,202.079208 559.343234,200.448845 C545.69967,178.69637 525.706271,166.683168 502.966997,166.683168 C450.280528,166.683168 421.834983,222.372937 421.834983,274.80198 C421.834983,303.462046 429.686469,330.105611 443.930693,349.79868 C454.270627,364.085809 472.676568,381.075908 501.808581,381.075908 C524.075908,381.075908 546.171617,368.462046 559.386139,348.125413 C560.415842,346.537954 562.174917,345.594059 564.062706,345.594059 L564.834983,345.594059 C567.924092,345.594059 570.412541,348.082508 570.412541,351.171617 L570.412541,376.656766 C570.412541,417.50165 563.848185,471.818482 507.171617,471.818482 C472.20462,471.818482 447.062706,445.518152 444.488449,407.247525 L425.09571,407.247525 L425.09571,407.290429 Z M506.356436,358.636964 C464.052805,358.636964 441.957096,314.874587 441.957096,271.627063 C441.957096,250.346535 447.963696,230.224422 458.90429,214.950495 C470.788779,198.346535 487.521452,189.207921 505.970297,189.207921 C544.79868,189.207921 571.914191,223.316832 571.914191,272.09901 C571.914191,295.310231 566.165017,316.547855 555.739274,331.907591 C543.854785,349.412541 526.778878,358.636964 506.356436,358.636964 Z M505.970297,200.363036 C472.891089,200.363036 453.112211,236.617162 453.112211,271.627063 C453.112211,309.29703 471.389439,347.438944 506.356436,347.438944 C543.940594,347.438944 560.759076,309.59736 560.759076,272.056106 C560.759076,251.891089 555.481848,233.656766 545.871287,220.69967 C536.0033,207.39934 522.188119,200.363036 505.970297,200.363036 Z" id="Shape"></path>
            <path d="M809.646865,370.349835 C809.646865,404.458746 809.646865,434.019802 791.326733,462.207921 C774.508251,487.693069 748.551155,499.963696 721.821782,499.963696 C671.79538,499.963696 634.726073,462.207921 633.567657,401.712871 L664.115512,401.712871 C664.50165,441.270627 688.570957,466.283828 721.435644,466.283828 C768.80198,466.283828 779.09901,424.881188 779.09901,376.69967 L779.09901,351.214521 L778.326733,351.214521 C763.825083,373.481848 740.141914,386.69637 716.072607,386.69637 C663.729373,386.69637 630.521452,334.39604 630.521452,274.80198 C630.521452,214.778878 664.158416,161.105611 717.231023,161.105611 C742.072607,161.105611 763.825083,174.277228 778.369637,197.488449 L779.141914,197.488449 L779.141914,167.026403 L809.689769,167.026403 L809.689769,370.349835 L809.646865,370.349835 Z M661.841584,271.669967 C661.841584,313.50165 682.478548,353.10231 720.663366,353.10231 C760.006601,353.10231 780.643564,315.346535 780.643564,272.141914 C780.643564,229.409241 758.118812,194.828308 720.277228,194.828308 C684.752475,194.785479 661.841584,231.640264 661.841584,271.669967 Z" id="Shape"></path>
            <path d="M721.821782,505.541254 C666.861386,505.541254 629.191419,463.881188 627.990099,401.841584 C627.947195,400.339934 628.547855,398.881188 629.577558,397.808581 C630.607261,396.735974 632.066007,396.135314 633.567657,396.135314 L664.115512,396.135314 C667.161716,396.135314 669.650165,398.580858 669.693069,401.669967 C670.036304,436.980198 690.80198,460.706271 721.392739,460.706271 C757.432343,460.706271 773.478548,434.792079 773.478548,376.69967 L773.478548,366.445545 C758.20462,382.834983 737.567657,392.316832 716.029703,392.316832 C689.643564,392.316832 665.874587,379.574257 649.09901,356.405941 C633.481848,334.825083 624.90099,305.864686 624.90099,274.844884 C624.90099,206.841584 664.587459,155.570957 717.188119,155.570957 C738.940594,155.570957 758.462046,164.752475 773.478548,181.742574 L773.478548,167.069307 C773.478548,163.980198 775.966997,161.491749 779.056106,161.491749 L809.60396,161.491749 C812.693069,161.491749 815.181518,163.980198 815.181518,167.069307 L815.181518,370.392739 C815.181518,405.445545 815.181518,435.735974 795.960396,465.29703 C779.09901,490.867987 752.069307,505.541254 721.821782,505.541254 Z M639.359736,407.290429 C642.491749,459.633663 675.056106,494.386139 721.778878,494.386139 C748.207921,494.386139 771.848185,481.557756 786.650165,459.161716 C804.069307,432.389439 804.069307,403.643564 804.069307,370.349835 L804.069307,172.60396 L784.676568,172.60396 L784.676568,197.488449 C784.676568,200.577558 782.188119,203.066007 779.09901,203.066007 L778.326733,203.066007 C776.39604,203.066007 774.636964,202.079208 773.607261,200.448845 C759.963696,178.69637 739.970297,166.683168 717.231023,166.683168 C664.544554,166.683168 636.09901,222.372937 636.09901,274.80198 C636.09901,303.462046 643.950495,330.105611 658.194719,349.79868 C668.534653,364.085809 686.940594,381.075908 716.072607,381.075908 C738.339934,381.075908 760.435644,368.462046 773.650165,348.125413 C774.679868,346.537954 776.438944,345.594059 778.326733,345.594059 L779.09901,345.594059 C782.188119,345.594059 784.676568,348.082508 784.676568,351.171617 L784.676568,376.656766 C784.676568,417.50165 778.112211,471.818482 721.435644,471.818482 C686.468647,471.818482 661.326733,445.518152 658.752475,407.247525 L639.359736,407.247525 L639.359736,407.290429 Z M720.663366,358.636964 C678.359736,358.636964 656.264026,314.874587 656.264026,271.627063 C656.264026,250.346535 662.270627,230.224422 673.211221,214.950495 C685.09571,198.346535 701.828383,189.207921 720.277228,189.207921 C759.105611,189.207921 786.221122,223.316832 786.221122,272.09901 C786.221122,295.310231 780.471947,316.547855 770.046205,331.907591 C758.161716,349.412541 741.085809,358.636964 720.663366,358.636964 Z M720.277228,200.363036 C687.19802,200.363036 667.419142,236.617162 667.419142,271.627063 C667.419142,309.29703 685.69637,347.438944 720.663366,347.438944 C758.247525,347.438944 775.066007,309.59736 775.066007,272.056106 C775.066007,251.891089 769.788779,233.656766 760.178218,220.69967 C750.267327,207.39934 736.49505,200.363036 720.277228,200.363036 Z" id="Shape"></path>
            <path d="M1023.9538,370.349835 C1023.9538,404.458746 1023.9538,434.019802 1005.63366,462.207921 C988.815182,487.693069 962.858086,499.963696 936.128713,499.963696 C886.10231,499.963696 849.033003,462.207921 847.874587,401.712871 L878.422442,401.712871 C878.808581,441.270627 902.877888,466.283828 935.742574,466.283828 C983.108911,466.283828 993.405941,424.881188 993.405941,376.69967 L993.405941,351.214521 L992.633663,351.214521 C978.132013,373.481848 954.448845,386.69637 930.379538,386.69637 C878.036304,386.69637 844.828383,334.39604 844.828383,274.80198 C844.828383,214.778878 878.465347,161.105611 931.537954,161.105611 C956.379538,161.105611 978.132013,174.277228 992.676568,197.488449 L993.448845,197.488449 L993.448845,167.026403 L1023.9967,167.026403 L1023.9967,370.349835 L1023.9538,370.349835 Z M876.105611,271.669967 C876.105611,313.50165 896.742574,353.10231 934.927393,353.10231 C974.270627,353.10231 994.907591,315.346535 994.907591,272.141914 C994.907591,229.409241 972.382838,194.828308 934.541254,194.828308 C899.059406,194.785479 876.105611,231.640264 876.105611,271.669967 Z" id="Shape"></path>
            <path d="M936.085809,505.541254 C881.125413,505.541254 843.455446,463.881188 842.254125,401.841584 C842.211221,400.339934 842.811881,398.881188 843.841584,397.808581 C844.871287,396.735974 846.330033,396.135314 847.831683,396.135314 L878.379538,396.135314 C881.425743,396.135314 883.914191,398.580858 883.957096,401.669967 C884.30033,436.980198 905.066007,460.706271 935.656766,460.706271 C971.69637,460.706271 987.742574,434.792079 987.742574,376.69967 L987.742574,366.445545 C972.468647,382.834983 951.831683,392.316832 930.293729,392.316832 C903.907591,392.316832 880.138614,379.574257 863.363036,356.405941 C847.745875,334.825083 839.165017,305.864686 839.165017,274.844884 C839.165017,206.841584 878.851485,155.570957 931.452145,155.570957 C953.20462,155.570957 972.726073,164.752475 987.742574,181.742574 L987.742574,167.069307 C987.742574,163.980198 990.231023,161.491749 993.320132,161.491749 L1023.86799,161.491749 C1026.9571,161.491749 1029.44554,163.980198 1029.44554,167.069307 L1029.44554,370.392739 C1029.44554,405.445545 1029.44554,435.735974 1010.22442,465.29703 C993.405941,490.867987 966.333333,505.541254 936.085809,505.541254 Z M853.666667,407.290429 C856.79868,459.633663 889.363036,494.386139 936.085809,494.386139 C962.514851,494.386139 986.155116,481.557756 1000.9571,459.161716 C1018.37624,432.389439 1018.37624,403.643564 1018.37624,370.349835 L1018.37624,172.60396 L998.983498,172.60396 L998.983498,197.488449 C998.983498,200.577558 996.49505,203.066007 993.405941,203.066007 L992.633663,203.066007 C990.70297,203.066007 988.943894,202.079208 987.914191,200.448845 C974.270627,178.69637 954.277228,166.683168 931.537954,166.683168 C878.851485,166.683168 850.405941,222.372937 850.405941,274.80198 C850.405941,303.462046 858.257426,330.105611 872.50165,349.79868 C882.841584,364.085809 901.247525,381.075908 930.379538,381.075908 C952.646865,381.075908 974.742574,368.462046 987.957096,348.125413 C988.986799,346.537954 990.745875,345.594059 992.633663,345.594059 L993.405941,345.594059 C996.49505,345.594059 998.983498,348.082508 998.983498,351.171617 L998.983498,376.656766 C998.983498,417.50165 992.419142,471.818482 935.742574,471.818482 C900.775578,471.818482 875.633663,445.518152 873.059406,407.247525 L853.666667,407.247525 L853.666667,407.290429 Z M934.927393,358.636964 C892.623762,358.636964 870.528053,314.874587 870.528053,271.627063 C870.528053,250.346535 876.534653,230.224422 887.475248,214.950495 C899.359736,198.346535 916.092409,189.207921 934.541254,189.207921 C973.369637,189.207921 1000.48515,223.316832 1000.48515,272.09901 C1000.48515,295.310231 994.735974,316.547855 984.310231,331.907591 C972.425743,349.412541 955.349835,358.636964 934.927393,358.636964 Z M934.584158,200.363036 C901.50495,200.363036 881.726073,236.617162 881.726073,271.627063 C881.726073,309.29703 900.0033,347.438944 934.970297,347.438944 C972.554455,347.438944 989.372937,309.59736 989.372937,272.056106 C989.372937,251.891089 984.09571,233.656766 974.485149,220.69967 C964.574257,207.39934 950.759076,200.363036 934.584158,200.363036 Z" id="Shape"></path>
            <path d="M1209.25743,167.026403 L1209.25743,273.429043 L1209.21452,273.429043 C1208.78548,316.075908 1188.19142,353.059406 1149.27723,353.059406 C1111.60726,353.059406 1091.05611,314.617162 1090.49835,273.429043 L1090.49835,167.026403 L1059.17822,167.026403 C1059.17822,167.49835 1059.13531,274.372937 1059.13531,274.80198 C1059.13531,334.39604 1092.38614,386.69637 1144.68647,386.69637 C1168.75578,386.69637 1192.43894,373.524752 1206.94059,351.214521 L1207.71287,351.214521 L1207.71287,376.69967 C1207.71287,424.924092 1197.41584,466.283828 1150.0495,466.283828 C1117.18482,466.283828 1093.11551,441.270627 1092.72937,401.712871 L1062.18152,401.712871 C1063.33993,462.207921 1100.36634,499.963696 1150.43564,499.963696 C1177.16502,499.963696 1203.16502,487.693069 1219.94059,462.207921 C1238.26073,434.019802 1238.26073,404.458746 1238.26073,370.349835 L1238.26073,167.026403 L1209.25743,167.026403 Z" id="Path"></path>
            <path d="M1150.39274,505.541254 C1095.43234,505.541254 1057.76238,463.881188 1056.56106,401.841584 C1056.51815,400.339934 1057.11881,398.881188 1058.14851,397.808581 C1059.17822,396.735974 1060.63696,396.135314 1062.13861,396.135314 L1092.68647,396.135314 C1095.73267,396.135314 1098.22112,398.580858 1098.26403,401.669967 C1098.60726,436.980198 1119.37294,460.706271 1149.9637,460.706271 C1186.0033,460.706271 1202.0495,434.792079 1202.0495,376.69967 L1202.0495,366.445545 C1186.77558,382.834983 1166.13861,392.316832 1144.60066,392.316832 C1118.21452,392.316832 1094.44554,379.574257 1077.66997,356.405941 C1062.05281,334.825083 1053.47195,305.864686 1053.47195,274.844884 C1053.47195,273.815182 1053.47195,167.49835 1053.51485,167.026403 C1053.55776,163.980198 1056.0462,161.491749 1059.09241,161.491749 L1090.41254,161.491749 C1093.50165,161.491749 1095.9901,163.980198 1095.9901,167.069307 L1095.9901,273.471947 C1096.50495,309.082508 1113.36634,347.524752 1149.19142,347.524752 C1186.26073,347.524752 1203.20792,310.326733 1203.55116,273.429043 C1203.55116,273.171617 1203.59406,272.914191 1203.59406,272.656766 L1203.59406,167.026403 C1203.59406,163.937294 1206.08251,161.448845 1209.17162,161.448845 L1238.17492,161.448845 C1241.26403,161.448845 1243.75248,163.937294 1243.75248,167.026403 L1243.75248,370.349835 C1243.75248,405.40264 1243.75248,435.693069 1224.53135,465.254125 C1207.66997,490.867987 1180.64026,505.541254 1150.39274,505.541254 Z M1067.93069,407.290429 C1071.06271,459.633663 1103.62706,494.386139 1150.34983,494.386139 C1176.77888,494.386139 1200.41914,481.557756 1215.22112,459.161716 C1232.64026,432.389439 1232.64026,403.643564 1232.64026,370.349835 L1232.64026,172.60396 L1214.79208,172.60396 L1214.79208,273.429043 C1214.79208,273.729373 1214.74917,274.029703 1214.70627,274.330033 C1213.93399,324.785479 1187.67657,358.636964 1149.19142,358.636964 C1129.62706,358.636964 1113.06601,349.369637 1101.26733,331.821782 C1090.9703,316.50495 1085.13531,295.825083 1084.83498,273.557756 L1084.83498,172.646865 L1064.66997,172.646865 C1064.66997,194.570957 1064.62706,273.986799 1064.62706,274.844884 C1064.62706,303.50495 1072.47855,330.148515 1086.72277,349.841584 C1097.06271,364.128713 1115.46865,381.118812 1144.60066,381.118812 C1166.86799,381.118812 1188.9637,368.50495 1202.17822,348.168317 C1203.20792,346.580858 1204.967,345.636964 1206.85479,345.636964 L1207.62706,345.636964 C1210.71617,345.636964 1213.20462,348.125413 1213.20462,351.214521 L1213.20462,376.69967 C1213.20462,417.544554 1206.64026,471.861386 1149.9637,471.861386 C1114.9967,471.861386 1089.85479,445.561056 1087.28053,407.290429 L1067.93069,407.290429 L1067.93069,407.290429 Z" id="Shape"></path>
            <path d="M1287.17162,177.188119 C1287.17162,185.768977 1281.50825,192.547855 1274.12872,192.547855 C1266.83499,192.547855 1261,185.811881 1261,177.188119 C1261,168.778878 1266.83499,162 1274.12872,162 C1281.50825,162.042904 1287.17162,168.778878 1287.17162,177.188119 Z M1264.26073,177.188119 C1264.26073,183.924092 1268.46535,189.287129 1274.21453,189.287129 C1279.79208,189.287129 1283.9109,183.924092 1283.9109,177.273927 C1283.9109,170.537954 1279.79208,165.046205 1274.12872,165.046205 C1268.46535,165.089109 1264.26073,170.537954 1264.26073,177.188119 Z M1272.11222,185.125413 L1269.15182,185.125413 L1269.15182,169.937294 C1270.31024,169.679868 1271.9406,169.465347 1274.04291,169.465347 C1276.44555,169.465347 1277.51816,169.937294 1278.46205,170.580858 C1279.14852,171.224422 1279.70627,172.425743 1279.70627,173.927393 C1279.70627,175.60066 1278.63367,176.887789 1277.04621,177.445545 L1277.04621,177.617162 C1278.29043,178.174917 1278.9769,179.290429 1279.36304,181.306931 C1279.74918,183.623762 1279.9637,184.524752 1280.30693,185.082508 L1277.13202,185.082508 C1276.74588,184.524752 1276.53136,183.151815 1276.10231,181.392739 C1275.88779,179.719472 1275.11552,178.990099 1273.44225,178.990099 L1272.06931,178.990099 L1272.06931,185.125413 L1272.11222,185.125413 Z M1272.19802,176.544554 L1273.61387,176.544554 C1275.24423,176.544554 1276.57426,175.90099 1276.57426,174.313531 C1276.57426,172.940594 1275.71618,171.9967 1273.87129,171.9967 C1273.09901,171.9967 1272.54126,172.082508 1272.24093,172.168317 L1272.24093,176.544554 L1272.19802,176.544554 Z" id="Shape" stroke="#010101" stroke-width="0.25"></path>
        </g>
    </g>
</svg>